<?xml version="1.0" encoding="UTF-8" standalone="no"?>
<!-- Created with Inkscape (http://www.inkscape.org/) -->

<svg
   xmlns:svg="http://www.w3.org/2000/svg"
   xmlns="http://www.w3.org/2000/svg"
   xmlns:xlink="http://www.w3.org/1999/xlink"
   xmlns:sodipodi="http://sodipodi.sourceforge.net/DTD/sodipodi-0.dtd"
   xmlns:inkscape="http://www.inkscape.org/namespaces/inkscape"
   width="4132"
   height="2743"
   viewBox="0 0 4132 2743"
   inkscape:version="0.48.4 r9939"
   version="1.0">
  <defs />
  <sodipodi:namedview />
  <g
     inkscape:label="Layer 1"
     inkscape:groupmode="layer"
     id="layer1"
     transform="translate(0,1690.6378)">
    <image
       sodipodi:absref="/var/www/html/new2/!!00_non_release/3.5 - filling the page/V.A.19.00FCV-1r.jpg"
       xlink:href="V.A.19.00FCV-1r.jpg"
       y="-1690.6379"
       x="0"
       id="image3425"
       preserveAspectRatio="none"
       height="2743"
       width="4132" />
    <g
       style="font-size:40px;font-style:normal;font-weight:normal;line-height:125%;letter-spacing:0px;word-spacing:0px;fill:#000000;fill-opacity:1;stroke:none;font-family:sans-serif"
       id="text3403" />
    <g
       transform="matrix(0.98519262,-0.17145115,0.17145115,0.98519262,0,0)"
       style="font-size:40px;font-style:normal;font-weight:normal;line-height:125%;letter-spacing:0px;word-spacing:0px;fill:#000000;fill-opacity:1;stroke:none;font-family:sans-serif"
       id="text3124">
      <path
         d="m 2194.4243,507.16809 c 0,-4.13002 -0.8545,-7.36488 -2.5635,-9.70459 -1.6886,-2.36 -4.0181,-3.54001 -6.9885,-3.54004 -2.9704,3e-5 -5.3101,1.18004 -7.019,3.54004 -1.6887,2.33971 -2.533,5.57457 -2.533,9.70459 0,4.13006 0.8443,7.37509 2.533,9.73511 1.7089,2.33968 4.0486,3.50952 7.019,3.50952 2.9704,0 5.2999,-1.16984 6.9885,-3.50952 1.709,-2.36002 2.5635,-5.60505 2.5635,-9.73511 m -19.104,-11.93237 c 1.18,-2.03448 2.6652,-3.54001 4.4556,-4.5166 1.8107,-0.99688 3.9672,-1.49533 6.4697,-1.49537 4.1504,4e-5 7.5175,1.64799 10.1013,4.94385 2.6042,3.29593 3.9062,7.62942 3.9063,13.00049 -1e-4,5.37111 -1.3021,9.7046 -3.9063,13.00049 -2.5838,3.2959 -5.9509,4.94385 -10.1013,4.94385 -2.5025,0 -4.659,-0.48828 -6.4697,-1.46485 -1.7904,-0.9969 -3.2756,-2.51261 -4.4556,-4.54712 l 0,5.12696 -5.6457,0 0,-47.48535 5.6457,0 0,18.49365"
         style="font-size:62.5px"
         id="path6259"
         inkscape:connector-curvature="0" />
      <path
         d="m 2222.8057,493.9845 c -3.0111,3e-5 -5.3915,1.18004 -7.1411,3.54004 -1.7497,2.3397 -2.6246,5.55422 -2.6246,9.64355 0,4.08937 0.8647,7.31406 2.594,9.67407 1.7497,2.33969 4.1402,3.50953 7.1717,3.50952 2.9907,10e-6 5.3609,-1.18 7.1106,-3.54003 1.7496,-2.36002 2.6244,-5.57454 2.6245,-9.64356 -1e-4,-4.04864 -0.8749,-7.25299 -2.6245,-9.61304 -1.7497,-2.38034 -4.1199,-3.57052 -7.1106,-3.57055 m 0,-4.76075 c 4.8828,4e-5 8.7178,1.58695 11.5051,4.76075 2.7872,3.17385 4.1809,7.56838 4.1809,13.18359 0,5.5949 -1.3937,9.98943 -4.1809,13.18359 -2.7873,3.17383 -6.6223,4.76075 -11.5051,4.76075 -4.9032,0 -8.7484,-1.58692 -11.5357,-4.76075 -2.7669,-3.19416 -4.1504,-7.58869 -4.1504,-13.18359 0,-5.61521 1.3835,-10.00974 4.1504,-13.18359 2.7873,-3.1738 6.6325,-4.76071 11.5357,-4.76075"
         style="font-size:62.5px"
         id="path6261"
         inkscape:connector-curvature="0" />
      <path
         d="m 2244.5037,490.04773 5.6152,0 7.019,26.67236 6.9886,-26.67236 6.6223,0 7.019,26.67236 6.9885,-26.67236 5.6153,0 -8.9417,34.17969 -6.6223,0 -7.3547,-28.01514 -7.3853,28.01514 -6.6223,0 -8.9416,-34.17969"
         style="font-size:62.5px"
         id="path6263"
         inkscape:connector-curvature="0" />
      <path
         d="m 2298.9165,476.74207 5.6152,0 0,47.48535 -5.6152,0 0,-47.48535"
         style="font-size:62.5px"
         id="path6265"
         inkscape:connector-curvature="0" />
      <path
         d="m 2345.4863,505.73376 0,2.74659 -25.8178,0 c 0.2441,3.86557 1.4038,6.8156 3.479,8.85009 2.0955,2.01417 5.0048,3.02125 8.728,3.02124 2.1565,10e-6 4.2419,-0.26448 6.2561,-0.79345 2.0345,-0.52897 4.0486,-1.32242 6.0425,-2.38037 l 0,5.31006 c -2.0142,0.85449 -4.0792,1.50553 -6.1951,1.95312 -2.1159,0.44759 -4.2623,0.67139 -6.4392,0.67139 -5.4525,0 -9.7758,-1.58692 -12.97,-4.76075 -3.1738,-3.17382 -4.7607,-7.46662 -4.7607,-12.87841 0,-5.59487 1.5055,-10.03009 4.5166,-13.30567 3.0314,-3.29586 7.1106,-4.94381 12.2375,-4.94385 4.598,4e-5 8.2296,1.48523 10.8948,4.45557 2.6855,2.95006 4.0283,6.96821 4.0283,12.05444 m -5.6152,-1.64794 c -0.041,-3.07208 -0.9054,-5.52366 -2.594,-7.35474 -1.6683,-1.83103 -3.8859,-2.74655 -6.6528,-2.74658 -3.1332,3e-5 -5.6458,0.88504 -7.5379,2.65503 -1.8717,1.77004 -2.95,4.26231 -3.2348,7.4768 l 20.0195,-0.0305"
         style="font-size:62.5px"
         id="path6267"
         inkscape:connector-curvature="0" />
      <path
         d="m 2377.1941,506.74084 c 0,-4.06898 -0.8444,-7.22246 -2.533,-9.46044 -1.6683,-2.23793 -4.0181,-3.35691 -7.0495,-3.35694 -3.0111,3e-5 -5.361,1.11901 -7.0496,3.35694 -1.6683,2.23798 -2.5024,5.39146 -2.5024,9.46044 0,4.04868 0.8341,7.19199 2.5024,9.42994 1.6886,2.23796 4.0385,3.35693 7.0496,3.35693 3.0314,0 5.3812,-1.11897 7.0495,-3.35693 1.6886,-2.23795 2.533,-5.38126 2.533,-9.42994 m 5.6152,13.24463 c 0,5.81869 -1.2919,10.14201 -3.8757,12.96997 -2.5839,2.8483 -6.541,4.27245 -11.8713,4.27247 -1.9735,-2e-5 -3.8351,-0.15261 -5.5848,-0.45777 -1.7496,-0.28484 -3.4485,-0.73243 -5.0964,-1.34277 l 0,-5.46265 c 1.6479,0.89518 3.2755,1.55639 4.8828,1.98364 1.6073,0.42724 3.245,0.64087 4.9133,0.64087 3.6825,0 6.4392,-0.96639 8.2703,-2.89917 1.831,-1.91243 2.7466,-4.8116 2.7466,-8.69751 l 0,-2.7771 c -1.1597,2.01417 -2.6449,3.5197 -4.4556,4.51661 -1.8107,0.9969 -3.9775,1.49536 -6.5002,1.49536 -4.1911,0 -7.5684,-1.59709 -10.1319,-4.79126 -2.5634,-3.19417 -3.8452,-7.42593 -3.8452,-12.69532 0,-5.28969 1.2818,-9.53163 3.8452,-12.72583 2.5635,-3.19414 5.9408,-4.79122 10.1319,-4.79126 2.5227,4e-5 4.6895,0.49849 6.5002,1.49537 1.8107,0.99694 3.2959,2.50247 4.4556,4.5166 l 0,-5.18799 5.6152,0 0,29.93774"
         style="font-size:62.5px"
         id="path6269"
         inkscape:connector-curvature="0" />
      <path
         d="m 2416.8669,506.74084 c 0,-4.06898 -0.8443,-7.22246 -2.5329,-9.46044 -1.6683,-2.23793 -4.0182,-3.35691 -7.0496,-3.35694 -3.0111,3e-5 -5.3609,1.11901 -7.0495,3.35694 -1.6683,2.23798 -2.5025,5.39146 -2.5025,9.46044 0,4.04868 0.8342,7.19199 2.5025,9.42994 1.6886,2.23796 4.0384,3.35693 7.0495,3.35693 3.0314,0 5.3813,-1.11897 7.0496,-3.35693 1.6886,-2.23795 2.5329,-5.38126 2.5329,-9.42994 m 5.6153,13.24463 c -10e-5,5.81869 -1.292,10.14201 -3.8758,12.96997 -2.5838,2.8483 -6.5409,4.27245 -11.8713,4.27247 -1.9735,-2e-5 -3.835,-0.15261 -5.5847,-0.45777 -1.7497,-0.28484 -3.4485,-0.73243 -5.0964,-1.34277 l 0,-5.46265 c 1.6479,0.89518 3.2755,1.55639 4.8828,1.98364 1.6072,0.42724 3.245,0.64087 4.9133,0.64087 3.6824,0 6.4392,-0.96639 8.2703,-2.89917 1.831,-1.91243 2.7465,-4.8116 2.7465,-8.69751 l 0,-2.7771 c -1.1597,2.01417 -2.6448,3.5197 -4.4555,4.51661 -1.8108,0.9969 -3.9775,1.49536 -6.5003,1.49536 -4.1911,0 -7.5683,-1.59709 -10.1318,-4.79126 -2.5635,-3.19417 -3.8452,-7.42593 -3.8452,-12.69532 0,-5.28969 1.2817,-9.53163 3.8452,-12.72583 2.5635,-3.19414 5.9407,-4.79122 10.1318,-4.79126 2.5228,4e-5 4.6895,0.49849 6.5003,1.49537 1.8107,0.99694 3.2958,2.50247 4.4555,4.5166 l 0,-5.18799 5.6153,0 0,29.93774"
         style="font-size:62.5px"
         id="path6271"
         inkscape:connector-curvature="0" />
      <path
         d="m 2463.2842,505.73376 0,2.74659 -25.8179,0 c 0.2441,3.86557 1.4038,6.8156 3.479,8.85009 2.0955,2.01417 5.0049,3.02125 8.728,3.02124 2.1566,10e-6 4.242,-0.26448 6.2561,-0.79345 2.0345,-0.52897 4.0487,-1.32242 6.0425,-2.38037 l 0,5.31006 c -2.0142,0.85449 -4.0792,1.50553 -6.195,1.95312 -2.116,0.44759 -4.2624,0.67139 -6.4393,0.67139 -5.4524,0 -9.7758,-1.58692 -12.9699,-4.76075 -3.1739,-3.17382 -4.7608,-7.46662 -4.7608,-12.87841 0,-5.59487 1.5056,-10.03009 4.5166,-13.30567 3.0314,-3.29586 7.1106,-4.94381 12.2376,-4.94385 4.5979,4e-5 8.2295,1.48523 10.8948,4.45557 2.6855,2.95006 4.0282,6.96821 4.0283,12.05444 m -5.6153,-1.64794 c -0.041,-3.07208 -0.9053,-5.52366 -2.5939,-7.35474 -1.6684,-1.83103 -3.886,-2.74655 -6.6529,-2.74658 -3.1331,3e-5 -5.6457,0.88504 -7.5378,2.65503 -1.8718,1.77004 -2.9501,4.26231 -3.2349,7.4768 l 20.0195,-0.0305"
         style="font-size:62.5px"
         id="path6273"
         inkscape:connector-curvature="0" />
      <path
         d="m 2494.9919,495.23572 0,-18.49365 5.6153,0 0,47.48535 -5.6153,0 0,-5.12696 c -1.18,2.03451 -2.6754,3.55022 -4.486,4.54712 -1.7904,0.97657 -3.947,1.46485 -6.4698,1.46485 -4.13,0 -7.4971,-1.64795 -10.1013,-4.94385 -2.5838,-3.29589 -3.8757,-7.62938 -3.8757,-13.00049 0,-5.37107 1.2919,-9.70456 3.8757,-13.00049 2.6042,-3.29586 5.9713,-4.94381 10.1013,-4.94385 2.5228,4e-5 4.6794,0.49849 6.4698,1.49537 1.8106,0.97659 3.306,2.48212 4.486,4.5166 m -19.1345,11.93237 c 0,4.13006 0.8443,7.37509 2.533,9.73511 1.709,2.33968 4.0486,3.50952 7.019,3.50952 2.9704,0 5.3101,-1.16984 7.0191,-3.50952 1.7089,-2.36002 2.5634,-5.60505 2.5634,-9.73511 0,-4.13002 -0.8545,-7.36488 -2.5634,-9.70459 -1.709,-2.36 -4.0487,-3.54001 -7.0191,-3.54004 -2.9704,3e-5 -5.31,1.18004 -7.019,3.54004 -1.6887,2.33971 -2.533,5.57457 -2.533,9.70459"
         style="font-size:62.5px"
         id="path6275"
         inkscape:connector-curvature="0" />
    </g>
  </g>
</svg>
